<svg width="28" height="28" viewBox="0 0 28 28" xmlns="http://www.w3.org/2000/svg">
<path fill-rule="evenodd" clip-rule="evenodd" d="M14 26C20.6274 26 26 20.6274 26 14C26 7.37258 20.6274 2 14 2C7.37258 2 2 7.37258 2 14C2 20.6274 7.37258 26 14 26ZM20.2072 11.2071C20.5977 10.8166 20.5977 10.1834 20.2072 9.79289C19.8166 9.40237 19.1835 9.40237 18.793 9.79289L12.0001 16.5858L9.20717 13.7929C8.81664 13.4024 8.18348 13.4024 7.79295 13.7929C7.40243 14.1834 7.40243 14.8166 7.79295 15.2071L11.293 18.7071C11.4805 18.8946 11.7348 19 12.0001 19C12.2653 19 12.5196 18.8946 12.7072 18.7071L20.2072 11.2071Z" fill="black"/>
</svg>
