<svg width="1024" height="1025" viewBox="0 0 1024 1025" fill="none" xmlns="http://www.w3.org/2000/svg">
<path d="M0 241C0 108.452 107.452 1 240 1H784C916.548 1 1024 108.452 1024 241V701H0V241Z" fill="#989898"/>
<path d="M0 241C0 108.452 107.452 1 240 1H784C916.548 1 1024 108.452 1024 241V701H0V241Z" fill="url(#paint0_linear_401_2436)"/>
<path d="M0 241C0 108.452 107.452 1 240 1H784C916.548 1 1024 108.452 1024 241V701H0V241Z" fill="url(#paint1_radial_401_2436)"/>
<path d="M0 694.25C0 666.105 0 652.033 3.502 640.589C11.28 615.173 31.1734 595.28 56.5894 587.502C68.0328 584 82.1052 584 110.25 584H913.75C941.895 584 955.967 584 967.411 587.502C992.827 595.28 1012.72 615.173 1020.5 640.589C1024 652.033 1024 666.105 1024 694.25V694.25C1024 778.684 1024 820.902 1013.49 855.232C990.16 931.48 930.48 991.16 854.232 1014.49C819.902 1025 777.684 1025 693.25 1025H330.75C246.316 1025 204.098 1025 169.768 1014.49C93.5201 991.16 33.8401 931.48 10.506 855.232C0 820.902 0 778.684 0 694.25V694.25Z" fill="#3478F6"/>
<rect x="132" y="645" width="120" height="140" rx="30" fill="white"/>
<rect x="292" y="645" width="120" height="140" rx="30" fill="white"/>
<rect x="612" y="645" width="120" height="140" rx="30" fill="white"/>
<rect x="772" y="645" width="120" height="140" rx="30" fill="white"/>
<rect x="212" y="825" width="120" height="140" rx="30" fill="white"/>
<rect x="372" y="825" width="120" height="140" rx="30" fill="white"/>
<rect x="532" y="825" width="120" height="140" rx="30" fill="white"/>
<rect x="692" y="825" width="120" height="140" rx="30" fill="white"/>
<path d="M222 251C222 194.995 222 166.992 232.899 145.601C242.487 126.785 257.785 111.487 276.601 101.899C297.992 91 325.995 91 382 91H642C698.005 91 726.008 91 747.399 101.899C766.215 111.487 781.513 126.785 791.101 145.601C802 166.992 802 194.995 802 251V531C802 587.005 802 615.008 791.101 636.399C781.513 655.215 766.215 670.513 747.399 680.101C726.008 691 698.005 691 642 691H630.317C625.046 691 622.411 691 619.953 691.634C617.776 692.195 615.708 693.121 613.838 694.37C611.728 695.78 609.971 697.745 606.459 701.675L561.359 752.133C545.267 770.137 537.221 779.139 527.686 782.567C519.308 785.58 510.164 785.711 501.703 782.941C492.073 779.788 483.772 771.021 467.169 753.487L417.467 700.998C413.977 697.312 412.232 695.47 410.168 694.15C408.338 692.98 406.33 692.116 404.222 691.591C401.845 691 399.307 691 394.231 691H382C325.995 691 297.992 691 276.601 680.101C257.785 670.513 242.487 655.215 232.899 636.399C222 615.008 222 587.005 222 531V251Z" fill="black"/>
<path d="M365.852 391.354C375.106 389.357 384.228 395.241 386.224 404.496C398.467 461.241 448.895 502.428 507.714 502.428H516.286C575.099 502.428 625.523 461.249 637.772 404.513C639.77 395.258 648.892 389.376 658.146 391.374C667.401 393.372 673.284 402.494 671.285 411.748C656.547 480.015 598.579 530.595 529.144 536.197L529.143 588.143C529.143 597.611 521.468 605.286 512 605.286C502.532 605.286 494.857 597.611 494.857 588.143L494.855 536.197C425.412 530.594 367.44 480.003 352.71 411.726C350.713 402.472 356.597 393.35 365.852 391.354ZM512 185.286C559.339 185.286 597.714 223.661 597.714 271V373.857C597.714 421.196 559.339 459.571 512 459.571C464.661 459.571 426.286 421.196 426.286 373.857V271C426.286 223.661 464.661 185.286 512 185.286Z" fill="#FCFCFC"/>
<defs>
<linearGradient id="paint0_linear_401_2436" x1="512" y1="25.2196" x2="512" y2="637.819" gradientUnits="userSpaceOnUse">
<stop stop-color="white" stop-opacity="0.88"/>
<stop offset="1" stop-color="white" stop-opacity="0"/>
</linearGradient>
<radialGradient id="paint1_radial_401_2436" cx="0" cy="0" r="1" gradientUnits="userSpaceOnUse" gradientTransform="translate(512 37.9678) rotate(90) scale(556.671 1323.17)">
<stop stop-color="white" stop-opacity="0.95"/>
<stop offset="1" stop-color="white" stop-opacity="0.88"/>
</radialGradient>
</defs>
</svg>
