<svg width="28" height="28" viewBox="0 0 28 28" fill="none" xmlns="http://www.w3.org/2000/svg">
<path d="M8.04004 15C8.70591 15 9.26576 14.9997 9.72363 15.0371C10.2023 15.0762 10.6571 15.1618 11.0889 15.3818C11.7474 15.7174 12.2826 16.2526 12.6182 16.9111C12.8382 17.3429 12.9238 17.7977 12.9629 18.2764C13.0003 18.7342 13 19.2941 13 19.96V20.04C13 20.7059 13.0003 21.2658 12.9629 21.7236C12.9238 22.2023 12.8382 22.6571 12.6182 23.0889C12.2826 23.7474 11.7474 24.2826 11.0889 24.6182C10.6571 24.8382 10.2023 24.9238 9.72363 24.9629C9.26576 25.0003 8.70592 25 8.04004 25H7.95996C7.29408 25 6.73425 25.0003 6.27637 24.9629C5.79771 24.9238 5.34294 24.8382 4.91113 24.6182C4.25262 24.2826 3.71738 23.7474 3.38184 23.0889C3.16182 22.6571 3.07623 22.2023 3.03711 21.7236C2.9997 21.2658 2.99999 20.7059 3 20.04V19.96C2.99999 19.2941 2.9997 18.7342 3.03711 18.2764C3.07623 17.7977 3.16182 17.3429 3.38184 16.9111C3.71738 16.2526 4.25262 15.7174 4.91113 15.3818C5.34294 15.1618 5.79771 15.0762 6.27637 15.0371C6.73424 14.9997 7.29409 15 7.95996 15H8.04004ZM20.04 15C20.7059 15 21.2658 14.9997 21.7236 15.0371C22.2023 15.0762 22.6571 15.1618 23.0889 15.3818C23.7474 15.7174 24.2826 16.2526 24.6182 16.9111C24.8382 17.3429 24.9238 17.7977 24.9629 18.2764C25.0003 18.7342 25 19.2941 25 19.96V20.04C25 20.7059 25.0003 21.2658 24.9629 21.7236C24.9238 22.2023 24.8382 22.6571 24.6182 23.0889C24.2826 23.7474 23.7474 24.2826 23.0889 24.6182C22.6571 24.8382 22.2023 24.9238 21.7236 24.9629C21.2658 25.0003 20.7059 25 20.04 25H19.96C19.2941 25 18.7342 25.0003 18.2764 24.9629C17.7977 24.9238 17.3429 24.8382 16.9111 24.6182C16.2526 24.2826 15.7174 23.7474 15.3818 23.0889C15.1618 22.6571 15.0762 22.2023 15.0371 21.7236C14.9997 21.2658 15 20.7059 15 20.04V19.96C15 19.2941 14.9997 18.7342 15.0371 18.2764C15.0762 17.7977 15.1618 17.3429 15.3818 16.9111C15.7174 16.2526 16.2526 15.7174 16.9111 15.3818C17.3429 15.1618 17.7977 15.0762 18.2764 15.0371C18.7342 14.9997 19.2941 15 19.96 15H20.04ZM8 17C7.28347 17 6.80616 17.0003 6.43945 17.0303C6.0849 17.0592 5.92228 17.1107 5.81934 17.1631C5.53709 17.3069 5.3069 17.5371 5.16309 17.8193C5.11072 17.9223 5.05924 18.0849 5.03027 18.4395C5.00032 18.8062 5 19.2835 5 20C5 20.7165 5.00032 21.1938 5.03027 21.5605C5.05924 21.9151 5.11072 22.0777 5.16309 22.1807C5.3069 22.4629 5.53709 22.6931 5.81934 22.8369C5.92228 22.8893 6.08489 22.9408 6.43945 22.9697C6.80616 22.9997 7.28347 23 8 23C8.71653 23 9.19384 22.9997 9.56055 22.9697C9.91511 22.9408 10.0777 22.8893 10.1807 22.8369C10.4629 22.6931 10.6931 22.4629 10.8369 22.1807C10.8893 22.0777 10.9408 21.9151 10.9697 21.5605C10.9997 21.1938 11 20.7165 11 20C11 19.2835 10.9997 18.8062 10.9697 18.4395C10.9408 18.0849 10.8893 17.9223 10.8369 17.8193C10.6931 17.5371 10.4629 17.3069 10.1807 17.1631C10.0777 17.1107 9.9151 17.0592 9.56055 17.0303C9.19384 17.0003 8.71653 17 8 17ZM20 17C19.2835 17 18.8062 17.0003 18.4395 17.0303C18.0849 17.0592 17.9223 17.1107 17.8193 17.1631C17.5371 17.3069 17.3069 17.5371 17.1631 17.8193C17.1107 17.9223 17.0592 18.0849 17.0303 18.4395C17.0003 18.8062 17 19.2835 17 20C17 20.7165 17.0003 21.1938 17.0303 21.5605C17.0592 21.9151 17.1107 22.0777 17.1631 22.1807C17.3069 22.4629 17.5371 22.6931 17.8193 22.8369C17.9223 22.8893 18.0849 22.9408 18.4395 22.9697C18.8062 22.9997 19.2835 23 20 23C20.7165 23 21.1938 22.9997 21.5605 22.9697C21.9151 22.9408 22.0777 22.8893 22.1807 22.8369C22.4629 22.6931 22.6931 22.4629 22.8369 22.1807C22.8893 22.0777 22.9408 21.9151 22.9697 21.5605C22.9997 21.1938 23 20.7165 23 20C23 19.2835 22.9997 18.8062 22.9697 18.4395C22.9408 18.0849 22.8893 17.9223 22.8369 17.8193C22.6931 17.5371 22.4629 17.3069 22.1807 17.1631C22.0777 17.1107 21.9151 17.0592 21.5605 17.0303C21.1938 17.0003 20.7165 17 20 17ZM8.04004 3C8.70591 2.99999 9.26576 2.9997 9.72363 3.03711C10.2023 3.07623 10.6571 3.16182 11.0889 3.38184C11.7474 3.71738 12.2826 4.25262 12.6182 4.91113C12.8382 5.34294 12.9238 5.79771 12.9629 6.27637C13.0003 6.73425 13 7.29408 13 7.95996V8.04004C13 8.70592 13.0003 9.26576 12.9629 9.72363C12.9238 10.2023 12.8382 10.6571 12.6182 11.0889C12.2826 11.7474 11.7474 12.2826 11.0889 12.6182C10.6571 12.8382 10.2023 12.9238 9.72363 12.9629C9.26576 13.0003 8.70592 13 8.04004 13H7.95996C7.29408 13 6.73425 13.0003 6.27637 12.9629C5.79771 12.9238 5.34294 12.8382 4.91113 12.6182C4.25262 12.2826 3.71738 11.7474 3.38184 11.0889C3.16182 10.6571 3.07623 10.2023 3.03711 9.72363C2.9997 9.26576 2.99999 8.70591 3 8.04004V7.95996C2.99999 7.29409 2.9997 6.73424 3.03711 6.27637C3.07623 5.79771 3.16182 5.34294 3.38184 4.91113C3.71738 4.25262 4.25262 3.71738 4.91113 3.38184C5.34294 3.16182 5.79771 3.07623 6.27637 3.03711C6.73424 2.9997 7.29409 2.99999 7.95996 3H8.04004ZM20.04 3C20.7059 2.99999 21.2658 2.9997 21.7236 3.03711C22.2023 3.07623 22.6571 3.16182 23.0889 3.38184C23.7474 3.71738 24.2826 4.25262 24.6182 4.91113C24.8382 5.34294 24.9238 5.79771 24.9629 6.27637C25.0003 6.73425 25 7.29408 25 7.95996V8.04004C25 8.70592 25.0003 9.26576 24.9629 9.72363C24.9238 10.2023 24.8382 10.6571 24.6182 11.0889C24.2826 11.7474 23.7474 12.2826 23.0889 12.6182C22.6571 12.8382 22.2023 12.9238 21.7236 12.9629C21.2658 13.0003 20.7059 13 20.04 13H19.96C19.2941 13 18.7342 13.0003 18.2764 12.9629C17.7977 12.9238 17.3429 12.8382 16.9111 12.6182C16.2526 12.2826 15.7174 11.7474 15.3818 11.0889C15.1618 10.6571 15.0762 10.2023 15.0371 9.72363C14.9997 9.26576 15 8.70591 15 8.04004V7.95996C15 7.29409 14.9997 6.73424 15.0371 6.27637C15.0762 5.79771 15.1618 5.34294 15.3818 4.91113C15.7174 4.25262 16.2526 3.71738 16.9111 3.38184C17.3429 3.16182 17.7977 3.07623 18.2764 3.03711C18.7342 2.9997 19.2941 2.99999 19.96 3H20.04ZM8 5C7.28347 5 6.80616 5.00032 6.43945 5.03027C6.0849 5.05924 5.92228 5.11072 5.81934 5.16309C5.53709 5.3069 5.3069 5.53709 5.16309 5.81934C5.11072 5.92228 5.05924 6.0849 5.03027 6.43945C5.00032 6.80616 5 7.28347 5 8C5 8.71653 5.00032 9.19384 5.03027 9.56055C5.05924 9.9151 5.11072 10.0777 5.16309 10.1807C5.3069 10.4629 5.53709 10.6931 5.81934 10.8369C5.92228 10.8893 6.08489 10.9408 6.43945 10.9697C6.80616 10.9997 7.28347 11 8 11C8.71653 11 9.19384 10.9997 9.56055 10.9697C9.91511 10.9408 10.0777 10.8893 10.1807 10.8369C10.4629 10.6931 10.6931 10.4629 10.8369 10.1807C10.8893 10.0777 10.9408 9.91511 10.9697 9.56055C10.9997 9.19384 11 8.71653 11 8C11 7.28347 10.9997 6.80616 10.9697 6.43945C10.9408 6.08489 10.8893 5.92228 10.8369 5.81934C10.6931 5.53709 10.4629 5.3069 10.1807 5.16309C10.0777 5.11072 9.9151 5.05924 9.56055 5.03027C9.19384 5.00032 8.71653 5 8 5ZM20 5C19.2835 5 18.8062 5.00032 18.4395 5.03027C18.0849 5.05924 17.9223 5.11072 17.8193 5.16309C17.5371 5.3069 17.3069 5.53709 17.1631 5.81934C17.1107 5.92228 17.0592 6.0849 17.0303 6.43945C17.0003 6.80616 17 7.28347 17 8C17 8.71653 17.0003 9.19384 17.0303 9.56055C17.0592 9.9151 17.1107 10.0777 17.1631 10.1807C17.3069 10.4629 17.5371 10.6931 17.8193 10.8369C17.9223 10.8893 18.0849 10.9408 18.4395 10.9697C18.8062 10.9997 19.2835 11 20 11C20.7165 11 21.1938 10.9997 21.5605 10.9697C21.9151 10.9408 22.0777 10.8893 22.1807 10.8369C22.4629 10.6931 22.6931 10.4629 22.8369 10.1807C22.8893 10.0777 22.9408 9.91511 22.9697 9.56055C22.9997 9.19384 23 8.71653 23 8C23 7.28347 22.9997 6.80616 22.9697 6.43945C22.9408 6.08489 22.8893 5.92228 22.8369 5.81934C22.6931 5.53709 22.4629 5.3069 22.1807 5.16309C22.0777 5.11072 21.9151 5.05924 21.5605 5.03027C21.1938 5.00032 20.7165 5 20 5Z" fill="black"/>
</svg>
